<?xml version="1.0" standalone="no"?>
<!DOCTYPE svg PUBLIC "-//W3C//DTD SVG 20010904//EN"
 "http://www.w3.org/TR/2001/REC-SVG-20010904/DTD/svg10.dtd">
<svg version="1.0" xmlns="http://www.w3.org/2000/svg"
 width="200.000000pt" height="200.000000pt" viewBox="0 0 200.000000 200.000000"
 preserveAspectRatio="xMidYMid meet">
<metadata>
Created by potrace 1.11, written by Peter Selinger 2001-2013
</metadata>
<g transform="translate(0.000000,200.000000) scale(0.100000,-0.100000)"
fill="#000000" stroke="none">
<path d="M1533 1906 c-62 -45 -115 -110 -153 -186 -12 -25 -24 -46 -25 -48 -1
-2 -29 24 -60 57 -32 34 -77 72 -100 85 -66 39 -147 68 -158 57 -12 -12 62
-229 123 -356 60 -124 125 -225 145 -225 22 0 19 8 -32 90 -80 128 -205 421
-188 439 4 3 35 -9 71 -28 133 -69 220 -204 242 -376 9 -79 25 -78 80 5 78
120 142 328 142 468 0 76 -7 78 -87 18z m52 -68 c-12 -104 -43 -208 -92 -310
-25 -54 -50 -98 -54 -98 -4 0 -10 15 -14 33 -4 17 -16 62 -28 99 l-21 67 37
73 c20 40 49 87 65 103 34 37 101 95 108 95 3 0 3 -28 -1 -62z"/>
<path d="M1666 1335 c-7 -19 2 -22 80 -28 114 -9 193 -73 202 -166 5 -58 -17
-113 -60 -144 -28 -21 -39 -57 -16 -57 6 0 30 20 54 44 140 147 17 366 -207
366 -33 0 -49 -5 -53 -15z"/>
<path d="M1372 1273 c-47 -44 -181 -275 -193 -332 -6 -30 -9 -131 -7 -248 3
-223 12 -255 74 -294 31 -19 46 -20 163 -17 122 3 131 4 157 28 46 43 54 76
54 237 l0 148 -97 -3 c-104 -3 -123 -12 -123 -57 0 -36 31 -55 88 -55 l52 0 0
-73 c0 -112 -6 -117 -139 -117 -149 0 -141 -13 -141 236 l0 200 76 124 c42 69
82 128 88 132 6 4 50 8 97 8 82 0 86 1 98 26 9 20 8 32 -1 52 -13 26 -16 27
-115 30 -100 3 -103 2 -131 -25z"/>
<path d="M1690 1201 c-23 -44 1 -81 51 -81 45 0 69 17 69 48 0 39 -17 52 -67
52 -32 0 -45 -5 -53 -19z"/>
<path d="M94 1160 c-67 -27 -100 -129 -68 -208 22 -52 77 -93 97 -73 8 8 2 19
-26 42 -61 51 -68 124 -17 179 39 42 81 41 126 -4 19 -19 34 -41 34 -50 0 -9
7 -16 15 -16 22 0 19 37 -7 77 -31 52 -99 75 -154 53z"/>
<path d="M752 1156 c-92 -18 -102 -22 -102 -41 0 -18 4 -18 105 0 106 19 258
19 351 -1 42 -8 78 -13 81 -10 14 14 -11 35 -54 46 -77 18 -297 21 -381 6z"/>
<path d="M1516 1139 c-8 -24 -66 -287 -66 -298 0 -24 20 -9 28 22 8 29 12 32
47 32 36 0 40 -3 49 -32 9 -32 26 -45 26 -20 0 24 -63 292 -71 301 -5 6 -10 4
-13 -5z m30 -149 c12 -56 10 -60 -23 -60 -15 0 -23 6 -23 18 0 27 20 92 28 92
5 0 13 -23 18 -50z"/>
<path d="M345 1091 c-28 -12 -42 -30 -128 -173 -95 -156 -100 -177 -95 -433 4
-205 8 -224 63 -275 25 -23 34 -25 148 -28 147 -3 179 8 215 78 20 40 22 59
22 192 l0 148 -90 0 c-99 0 -130 -15 -130 -64 0 -34 18 -44 80 -48 l55 -3 3
-74 c2 -53 -1 -79 -13 -97 -15 -23 -21 -24 -124 -24 -149 0 -141 -13 -141 235
l0 199 71 121 c39 66 79 126 87 133 10 7 47 12 97 12 90 0 105 8 105 55 0 17
-5 36 -12 43 -14 14 -181 16 -213 3z"/>
<path d="M1670 1015 c0 -10 10 -15 30 -15 l30 0 0 -125 0 -125 -30 0 c-24 0
-30 -4 -30 -20 0 -19 5 -21 73 -18 56 2 72 6 72 18 0 9 -11 16 -27 18 l-28 3
0 125 0 124 30 0 c20 0 30 5 30 15 0 12 -15 15 -75 15 -60 0 -75 -3 -75 -15z"/>
<path d="M607 984 c-4 -4 -7 -41 -7 -83 0 -64 9 -106 59 -270 61 -198 72 -224
92 -204 6 6 38 98 70 204 54 178 59 201 57 274 -3 72 -5 80 -23 80 -18 0 -21
-9 -26 -90 -3 -49 -8 -97 -12 -105 -3 -8 -20 -61 -37 -117 -17 -57 -34 -103
-39 -103 -4 0 -25 55 -47 123 -27 85 -40 147 -44 207 -4 66 -8 85 -20 88 -9 1
-19 0 -23 -4z"/>
<path d="M981 968 c-5 -13 -34 -135 -65 -271 -45 -198 -55 -252 -45 -263 20
-24 32 -11 48 52 l16 59 67 3 c67 3 67 3 74 -25 19 -85 26 -103 40 -103 8 0
17 7 21 15 4 13 -69 367 -108 518 -11 42 -35 49 -48 15z m48 -239 c28 -123 29
-119 -23 -119 -25 0 -47 3 -50 8 -4 6 26 150 39 190 8 23 13 12 34 -79z"/>
<path d="M467 943 c-3 -5 -19 -72 -37 -151 -23 -101 -29 -147 -22 -154 7 -7
13 0 17 26 7 35 9 36 51 36 35 0 44 -4 44 -17 0 -23 17 -49 25 -41 9 8 -56
308 -66 308 -4 0 -10 -3 -12 -7z m23 -110 c0 -10 3 -35 6 -55 6 -36 5 -38 -20
-38 -29 0 -32 13 -15 73 10 38 29 51 29 20z"/>
<path d="M721 351 c-29 -18 -5 -32 60 -35 73 -2 134 -30 134 -60 0 -32 -49
-59 -115 -64 -88 -6 -129 4 -167 45 -27 28 -34 32 -39 18 -20 -52 53 -97 166
-103 66 -3 81 0 130 25 52 26 55 30 58 70 3 37 -1 44 -30 67 -50 37 -162 59
-197 37z"/>
<path d="M1471 346 c-16 -18 4 -31 40 -28 15 2 43 -3 62 -12 80 -33 46 -116
-48 -116 -57 0 -93 17 -111 52 -17 32 -34 29 -34 -6 0 -23 28 -55 67 -75 52
-27 166 -2 195 43 17 25 8 87 -16 111 -39 39 -133 58 -155 31z"/>
</g>
</svg>
